<svg xmlns="http://www.w3.org/2000/svg" width="1506" height="256" overflow="hidden"><defs><clipPath id="a"><path d="M1444 1110h1506v256H1444z"/></clipPath></defs><g fill-rule="evenodd" clip-path="url(#a)" transform="translate(-1444 -1110)"><path fill="#ED1C24" d="M1624.732 1343.665c-28.876 28.87-76.116 28.87-105 0l-53.33-53.338c-28.886-28.885-28.886-76.129-.01-105.014l53.34-53.338c28.884-28.876 76.124-28.876 105 0l53.351 53.338c28.871 28.885 28.871 76.129 0 105.014l-53.351 53.338"/><path fill="#FFF" d="M1540.766 1316.238a7.976 7.976 0 0 1-7.995-7.653c-.07-2.14.654-4.18 2.115-5.767a7.994 7.994 0 0 1 5.549-2.572c4.406-.206 8.14 3.264 8.324 7.674.184 4.403-3.251 8.133-7.669 8.318h-.324M1569.356 1170.474c-4.318 0-7.778 1.36-10.579 4.15-6.036 6.017-9.212 18.424-8.92 34.961.341 20.39 5.175 60.378 21.17 80.977 2.595 3.326 5.374 6.023 8.284 7.907 2.812 1.886 5.97 3.697 10.91 3.697 1.327 0 2.775-.144 4.282-.407 9.16-2.219 20.632-12.424 29.19-26.056 1.297-2.075 3.528-3.329 5.976-3.329 1.315 0 2.624.394 3.76 1.11 1.576.992 2.683 2.564 3.109 4.412a7.003 7.003 0 0 1-.907 5.351c-10.779 17.214-25.053 29.306-38.143 32.347a.95.95 0 0 1-.324.086c-2.411.415-4.748.641-7.008.641-8.424 0-14.378-3.205-18.63-6.01-4.191-2.78-8.11-6.5-11.63-11.054-22.526-28.982-24.058-83.314-24.156-89.41-.244-14.482 1.837-34.042 13.083-45.26 5.506-5.466 12.383-8.266 20.48-8.266h1.334c8.097 0 14.984 2.8 20.477 8.266 11.263 11.185 13.344 30.778 13.094 45.26-.243 15.062-3.014 44.233-18.584 70.413a7.107 7.107 0 0 1-6.07 3.444 6.81 6.81 0 0 1-3.613-1.025c-3.339-1.98-4.433-6.334-2.451-9.696 10.922-18.282 16.179-38.443 16.596-63.398.285-16.537-2.89-28.944-8.92-34.961-2.8-2.79-6.244-4.15-10.58-4.15h-1.23"/><path fill="#EC1E27" d="M1901.842 1276.797c-16.895 0-29.772-17.216-29.772-38.46 0-21.258 12.877-38.497 29.772-38.497 16.96 0 29.854 17.24 29.854 38.498 0 21.244-12.894 38.46-29.854 38.46m0-87.476c-35.285 0-56.456 21.966-56.456 49.016 0 27.07 21.171 48.984 56.456 48.984 35.355 0 56.544-21.914 56.544-48.984 0-27.05-21.19-49.016-56.544-49.016M1963.266 1204.098h37.334v79.219h28.15v-79.219h31.517v-10.78h-97.001v10.78M2070.152 1204.098h31.513v79.219h28.1v-79.219h37.387v-10.78h-97v10.78M1789.588 1267.153v-73.836h-27.1v79.286c0 5.881 4.841 10.714 10.764 10.714h69.236v-10.784h-47.527a5.381 5.381 0 0 1-5.373-5.38M2182.043 1203.97v68.633c0 5.881 4.793 10.714 10.697 10.714h73.303v-10.664h-51.75c-2.967 0-5.323-2.394-5.323-5.356v-26.533h56.266v-10.526h-56.266v-20.949a5.31 5.31 0 0 1 5.324-5.32h51.749v-10.652h-73.32c-5.887 0-10.68 4.794-10.68 10.652M2367.381 1203.087c-8.886 0-16.758 3.164-23.535 9.381-6.778 6.296-10.169 14.701-10.169 25.243 0 10.577 3.353 19.04 10.11 25.299 6.742 6.337 14.626 9.5 23.594 9.5 8.82 0 16.668-3.163 23.492-9.5 6.816-6.259 10.238-14.722 10.238-25.299 0-10.542-3.39-18.947-10.18-25.243-6.812-6.217-14.637-9.381-23.55-9.381m0 81.224c-12.724 0-23.822-4.264-33.29-12.853-9.47-8.533-14.197-19.815-14.197-33.747 0-13.718 4.765-24.904 14.27-33.507 9.515-8.618 20.575-12.893 33.217-12.893 12.757 0 23.87 4.255 33.33 12.829 9.43 8.562 14.184 19.71 14.184 33.571 0 13.932-4.754 25.214-14.185 33.747-9.46 8.589-20.572 12.853-33.329 12.853M2479.76 1284.306c-10.867 0-19.772-2.976-26.683-8.864-6.834-5.934-10.317-14.045-10.317-24.298v-57.838h13.823v56.388c0 6.93 1.966 12.389 5.89 16.467 3.935 4.067 9.754 6.087 17.432 6.087 7.676 0 13.51-2.043 17.492-6.145 4.015-4.114 6.011-9.564 6.011-16.41v-56.387h13.352v57.838c0 10.182-3.468 18.233-10.376 24.202-6.923 5.946-15.789 8.96-26.624 8.96M2583.993 1205.05v78.265h-13.578v-78.265h-28.738v-11.735h71v11.735h-28.684M2640.552 1283.315v-90h13.863v78.265h40.137v11.735h-54M2724.467 1283.315v-90h48.991v11.735h-35.183v27.197h29.47v11.695h-29.47v27.638h40.192v11.735h-54M2846.273 1205.05v78.265h-13.819v-78.265h-29.077v-11.735h72v11.735h-29.104M2918.512 1284.31c-4.69 0-9.05-.555-13.09-1.73-4.072-1.159-7.419-2.583-10.04-4.276l-3.069-14.785c8.6 5.983 17.552 8.992 26.907 8.992 5.008 0 9.034-1.27 12.022-3.766 3-2.536 4.478-5.904 4.478-10.133 0-7.588-6.65-13.504-19.952-17.776-13.322-4.349-19.936-12.7-19.936-25.143 0-6.627 2.454-12.372 7.404-17.192 4.927-4.79 11.894-7.19 20.861-7.19 4.099 0 7.935.517 11.515 1.61 3.545 1.068 6.189 2.258 7.985 3.574l-2.718 11.235c-1.629-1.19-4.121-2.377-7.416-3.506a29.962 29.962 0 0 0-9.923-1.681c-4.393 0-7.958 1.184-10.652 3.512-2.705 2.33-4.029 5.208-4.029 8.655 0 6.013 4.478 10.563 13.5 13.657 9.014 3.05 15.757 6.869 20.22 11.419 4.492 4.52 6.734 10.401 6.734 17.595 0 8.232-2.67 14.788-7.958 19.63-5.34 4.884-12.972 7.3-22.843 7.3"/></g></svg>